# xmcd CD database file
# Copyright (C) 1993-1998 Ti Kan
#
# Track frame offsets:
#	150
#	31892
#	67806
#	87463
#	111143
#	140470
#	177012
#	211262
#	235726
#	259685
#	287067
#
# Disc length: 4227 seconds
#
# Revision: 1
# Processed by: cddbd v1.4b41PL1 Copyright (c) Steve Scherf et al.
# Submitted via: EasyCD 2.21 - (C) 1996 Greg Leichner
#
DISCID=9210810b
DTITLE=Dexter GORDON - Eddie "Lockjaw" DAVIS - The Sound Of Jazz - The Best Of
DTITLE=Eddie "Lockjaw" Davis
DYEAR=1900
DGENRE=
TTITLE0=Cute
TTITLE1=They Say That Falling In Love Is Wonderful
TTITLE2=Lullaby Of Birthland
TTITLE3=I Should Care
TTITLE4=Seven Come Eleven
TTITLE5=Blues For Gates
TTITLE6=The Breeze And I (Davis)
TTITLE7=Wave
TTITLE8=Never Be The Same
TTITLE9=Angel Eyes
TTITLE10=Land Of Dreams
EXTD=
EXTT0=
EXTT1=
EXTT2=
EXTT3=
EXTT4=
EXTT5=
EXTT6=
EXTT7=
EXTT8=
EXTT9=
EXTT10=
PLAYORDER=
